<svg width="30" height="14" viewBox="0 0 30 14" fill="none" xmlns="http://www.w3.org/2000/svg">
<rect width="30" height="14" rx="1" fill="#FF4319"/>
<path d="M9.49805 6.85938V7.83105H5.72363V6.85938H9.49805ZM6.02637 3.89062V11H4.80078V3.89062H6.02637ZM10.4404 3.89062V11H9.21973V3.89062H10.4404ZM18.5693 7.25V7.64062C18.5693 8.17773 18.4993 8.65951 18.3594 9.08594C18.2194 9.51237 18.0192 9.87533 17.7588 10.1748C17.5016 10.4743 17.1924 10.7038 16.8311 10.8633C16.4697 11.0195 16.0693 11.0977 15.6299 11.0977C15.1937 11.0977 14.7949 11.0195 14.4336 10.8633C14.0755 10.7038 13.7646 10.4743 13.501 10.1748C13.2373 9.87533 13.0322 9.51237 12.8857 9.08594C12.7425 8.65951 12.6709 8.17773 12.6709 7.64062V7.25C12.6709 6.71289 12.7425 6.23275 12.8857 5.80957C13.029 5.38314 13.2308 5.02018 13.4912 4.7207C13.7549 4.41797 14.0658 4.18848 14.4238 4.03223C14.7852 3.87272 15.1839 3.79297 15.6201 3.79297C16.0596 3.79297 16.46 3.87272 16.8213 4.03223C17.1826 4.18848 17.4935 4.41797 17.7539 4.7207C18.0143 5.02018 18.2145 5.38314 18.3545 5.80957C18.4977 6.23275 18.5693 6.71289 18.5693 7.25ZM17.3438 7.64062V7.24023C17.3438 6.8431 17.3047 6.49316 17.2266 6.19043C17.1517 5.88444 17.0394 5.62891 16.8896 5.42383C16.7432 5.21549 16.5625 5.05924 16.3477 4.95508C16.1328 4.84766 15.8903 4.79395 15.6201 4.79395C15.3499 4.79395 15.109 4.84766 14.8975 4.95508C14.6859 5.05924 14.5052 5.21549 14.3555 5.42383C14.209 5.62891 14.0967 5.88444 14.0186 6.19043C13.9404 6.49316 13.9014 6.8431 13.9014 7.24023V7.64062C13.9014 8.03776 13.9404 8.38932 14.0186 8.69531C14.0967 9.0013 14.2106 9.26009 14.3604 9.47168C14.5133 9.68001 14.6956 9.83789 14.9072 9.94531C15.1188 10.0495 15.3597 10.1016 15.6299 10.1016C15.9033 10.1016 16.1458 10.0495 16.3574 9.94531C16.569 9.83789 16.748 9.68001 16.8945 9.47168C17.041 9.26009 17.1517 9.0013 17.2266 8.69531C17.3047 8.38932 17.3438 8.03776 17.3438 7.64062ZM23.4756 3.89062V11H22.2598V3.89062H23.4756ZM25.707 3.89062V4.86719H20.0479V3.89062H25.707Z" fill="#FBFDFF"/>
</svg>
