<svg width="18" height="18" viewBox="0 0 18 18" fill="none" xmlns="http://www.w3.org/2000/svg">
<g clip-path="url(#clip0_1853_946)">
<path d="M12.876 11.25C12.4857 11.9336 11.9216 12.5017 11.2409 12.8969C10.5602 13.2921 9.78712 13.5003 9 13.5003C8.21288 13.5003 7.43977 13.2921 6.75907 12.8969C6.07836 12.5017 5.51426 11.9336 5.124 11.25H2.25C1.95164 11.25 1.66548 11.3685 1.4545 11.5795C1.24353 11.7904 1.125 12.0767 1.125 12.375V15.75C1.125 16.0483 1.24353 16.3345 1.4545 16.5455C1.66548 16.7565 1.95164 16.875 2.25 16.875H15.75C16.0483 16.875 16.3345 16.7565 16.5455 16.5455C16.7565 16.3345 16.875 16.0483 16.875 15.75V12.375C16.875 12.0767 16.7565 11.7904 16.5455 11.5795C16.3345 11.3685 16.0483 11.25 15.75 11.25H12.876Z" stroke="#FF4319" stroke-linecap="round" stroke-linejoin="round"/>
<path d="M9 1.125V9" stroke="#FF4319" stroke-linecap="round" stroke-linejoin="round"/>
<path d="M11.8125 3.375L9 1.125L6.1875 3.375" stroke="#FF4319" stroke-linecap="round" stroke-linejoin="round"/>
</g>
<defs>
<clipPath id="clip0_1853_946">
<rect width="18" height="18" fill="white"/>
</clipPath>
</defs>
</svg>
